{"title":"Kung Fu Chefs(2009)[DivX][SUBs.Eng+Gr]Omifast Greek","uid":5058569,"size":768931767,"categoryP":"video","categoryS":"movies","magnet":"?xt=urn:btih:ec70f378fae41e175f55e559bbd795f5fe3c9e59&amp;dn=Kung+Fu+Chefs%282009%29%5BDivX%5D%5BSUBs.Eng%2BGr%5DOmifast+Greek&amp;tr=udp%3A%2F%2Ftracker.openbittorrent.com%3A80&amp;tr=udp%3A%2F%2Fopen.demonii.com%3A1337&amp;tr=udp%3A%2F%2Ftracker.coppersurfer.tk%3A6969&amp;tr=udp%3A%2F%2Fexodus.desync.com%3A6969","seeders":1,"leechers":2,"uploader":"OmifastGR","files":-1,"time":1250550912,"description":"Optional English and Greek Subtitles\n\nMovie Trailer, Sample, Snapsots, English and Greek Info.txt Included\n\n---------------------------------------------------------------------\n\nGong fu chu shen aka Kung Fu Chefs (2009) - DivX7 &lt;a href=&quot;\nhttp://www.imdb.com/title/tt1372692/&quot; rel=&quot;nofollow&quot; target=&quot;_NEW&quot;&gt;\nhttp://www.imdb.com/title/tt1372692/&lt;/a&gt;\n\nOusted chef Wong Bing-Yi is determined to help Shen Qing at her restaurant &quot;Four Seas&quot;. He trains a young chef, Lung Kin-Yat to compete against Chef Tin, the head chef at &quot;Imperial Palace&quot;, for the title of &quot;Top Chef&quot;.  Written by Christopher C. \n\nStarring: Cherrie Ying, Ai Kago, Siu-Wong Fan, Barbie Hsu, Sammo Hung Kam-Bo\n\n------------------------------------------------------------------------\n\nGeneral\n\nFormat                           : DivX\nFormat/Info                      : Hack of AVI\nFile size                        : 703 MiB\nDuration                         : 1h 30mn\nOverall bit rate                 : 1 086 Kbps\n\nVideo\nID                               : 0\nFormat                           : MPEG-4 Visual\nFormat profile                   : AdvancedSimple@L5\nFormat settings, BVOP            : Yes\nFormat settings, QPel            : No\nFormat settings, GMC             : No warppoints\nFormat settings, Matrix          : Custom\nCodec ID                         : XVID\nCodec ID/Hint                    : XviD\nDuration                         : 1h 30mn\nBit rate                         : 950 Kbps\nWidth                            : 592 pixels\nHeight                           : 336 pixels\nDisplay aspect ratio             : 16:9\nFrame rate                       : 25.000 fps\nResolution                       : 24 bits\nColorimetry                      : 4:2:0\nScan type                        : Progressive\nBits/(Pixel*Frame)               : 0.191\nStream size                      : 615 MiB (87%)\nTitle                            : Video\nWriting library                  : XviD 1.2.1 (UTC 2008-12-04)\n\nAudio\nID                               : 1\nFormat                           : MPEG Audio\nFormat version                   : Version 1\nFormat profile                   : Layer 3\nCodec ID                         : 55\nCodec ID/Hint                    : MP3\nDuration                         : 1h 30mn\nBit rate mode                    : Variable\nBit rate                         : 118 Kbps\nNominal bit rate                 : 128 Kbps\nChannel(s)                       : 2 channels\nSampling rate                    : 48.0 KHz\nResolution                       : 16 bits\nStream size                      : 76.3 MiB (11%)\nAlignment                        : Aligned on interleaves\nInterleave, duration             : 24 ms (0.60 video frame)\nInterleave, preload duration     : 534 ms\nTitle                            : Audio\nWriting library                  : LAME3.98r\nEncoding settings                : -m j -V 4 -q 2 -lowpass 17 --abr 128\n\nText #1\nFormat                           : DivX Subtitle\nCodec ID                         : DXSB\nCodec ID/Info                    : Subtitle in AVI from DivX networks\nWidth                            : 720 pixels\nHeight                           : 576 pixels\nResolution                       : 4 bits\nStream size                      : 1.63 MiB (0%)\nTitle                            : Subtitle - el;02\n\nText #2\nFormat                           : DivX Subtitle\nCodec ID                         : DXSB\nCodec ID/Info                    : Subtitle in AVI from DivX networks\nWidth                            : 720 pixels\nHeight                           : 576 pixels\nResolution                       : 4 bits\nStream size                      : 1.69 MiB (0%)\nTitle                            : Subtitle - en;02\n\n\n!","torrent":{"xt":"urn:btih:ec70f378fae41e175f55e559bbd795f5fe3c9e59","amp;dn":"Kung+Fu+Chefs%282009%29%5BDivX%5D%5BSUBs.Eng%2BGr%5DOmifast+Greek","amp;tr":["udp%3A%2F%2Ftracker.openbittorrent.com%3A80","udp%3A%2F%2Fopen.demonii.com%3A1337","udp%3A%2F%2Ftracker.coppersurfer.tk%3A6969","udp%3A%2F%2Fexodus.desync.com%3A6969"],"infoHash":"ec70f378fae41e175f55e559bbd795f5fe3c9e59","infoHashBuffer":{"type":"Buffer","data":[236,112,243,120,250,228,30,23,95,85,229,89,187,215,149,245,254,60,158,89]},"announce":[],"urlList":[]}}